<svg width="261" height="156" viewBox="0 0 261 156" fill="none" xmlns="http://www.w3.org/2000/svg">
<path fill-rule="evenodd" clip-rule="evenodd" d="M109.574 0.232792C107.86 0.632843 105.955 1.78071 104.576 3.24356C100.074 8.0209 102.1 19.0143 109.375 19.1295L121.981 19.2628C134.118 19.3909 134.668 19.4175 136.752 19.9721C145 22.167 151.242 28.1173 153.714 36.1423C154.333 38.1551 154.409 38.8055 154.429 42.2719C154.448 45.5916 154.367 46.456 153.862 48.2764C151.457 56.9459 144.315 63.4768 135.275 65.2714C133.535 65.6167 128.508 65.6167 126.769 65.2714C117.729 63.4768 110.587 56.9459 108.182 48.2764C107.655 46.375 107.592 45.6049 107.592 41.0022V35.8546V35.6242C107.604 33.758 110.111 33.2651 113.29 33.2651H116.084L116.182 39.3322C116.269 44.7383 116.34 45.5784 116.835 47.0435C118.248 51.2309 121.741 54.7 126.201 56.3452C127.479 56.8171 128.22 56.9027 131.022 56.9027C133.823 56.9027 134.565 56.8171 135.843 56.3452C141.726 54.1749 145.44 49.3505 145.85 43.3457C146.034 40.6557 145.62 38.6472 144.34 36.0172C142.411 32.0552 138.495 29.0485 134.078 28.1373C132.673 27.8476 130.029 27.7695 121.599 27.7692C110.045 27.7687 109.023 27.8606 106.889 29.0892C105.257 30.0284 103.273 32.2691 102.581 33.9539C102.029 35.2987 101.992 35.724 102.001 40.5206C102.009 44.4458 102.118 46.1458 102.464 47.7643C103.727 53.6567 106.325 58.4341 110.509 62.5531C121.95 73.8156 140.094 73.8156 151.534 62.5531C157.089 57.085 159.962 50.3282 160 42.6472C160.023 37.7062 159.122 33.8893 156.928 29.6374C153.701 23.3832 147.825 18.16 141.336 15.7772C137.394 14.3296 136.279 14.1743 128.73 14.0207L121.599 13.8755L121.472 10.498C121.36 7.52402 121.264 6.95234 120.673 5.71441C118.705 1.59106 113.907 -0.778969 109.574 0.232792ZM109.601 5.95635C107.124 7.48574 106.758 10.8976 108.874 12.7234C110.008 13.7012 111.174 13.9976 113.895 13.9991L116.124 14.0006L116.118 11.4362C116.112 8.45297 115.67 7.17426 114.318 6.22855C113.141 5.40543 110.72 5.26558 109.601 5.95635ZM121.526 38.8191C121.621 43.8801 121.684 44.5321 122.206 45.8363C123.007 47.8381 124.91 49.8116 127.025 50.8348C128.563 51.5781 128.932 51.6537 131.017 51.6499C132.966 51.6467 133.535 51.5451 134.77 50.9794C142.16 47.5969 139.044 33.7655 133.569 33.3902L127.495 33.3149L121.422 33.2396L121.526 38.8191Z" fill="white"/>
<path d="M12.925 116.125C13.4383 116.272 14.0983 116.382 14.905 116.455C15.7117 116.492 16.4817 116.51 17.215 116.51C18.6817 116.51 19.8917 116.217 20.845 115.63C21.835 115.007 22.33 114.053 22.33 112.77C22.33 111.56 21.9267 110.698 21.12 110.185C20.3133 109.672 19.085 109.415 17.435 109.415H12.925V116.125ZM12.925 102.705H16.94C18.5167 102.705 19.6533 102.412 20.35 101.825C21.0833 101.238 21.45 100.377 21.45 99.24C21.45 98.25 21.0283 97.4617 20.185 96.875C19.3783 96.2883 18.15 95.995 16.5 95.995C15.95 95.995 15.3083 96.0133 14.575 96.05C13.8783 96.0867 13.3283 96.1417 12.925 96.215V102.705ZM16.5 123.88C15.8767 123.88 15.1433 123.862 14.3 123.825C13.4567 123.788 12.5767 123.715 11.66 123.605C10.78 123.495 9.9 123.348 9.02 123.165C8.14 123.018 7.33333 122.798 6.6 122.505C4.58333 121.735 3.575 120.397 3.575 118.49V92.805C3.575 92.035 3.77667 91.4483 4.18 91.045C4.62 90.605 5.20667 90.2567 5.94 90C7.18667 89.56 8.745 89.2483 10.615 89.065C12.485 88.845 14.41 88.735 16.39 88.735C21.0833 88.735 24.695 89.5233 27.225 91.1C29.755 92.6767 31.02 95.115 31.02 98.415C31.02 100.065 30.5433 101.495 29.59 102.705C28.6367 103.878 27.3533 104.74 25.74 105.29C27.5733 105.803 29.095 106.738 30.305 108.095C31.5517 109.452 32.175 111.157 32.175 113.21C32.175 116.84 30.8183 119.535 28.105 121.295C25.4283 123.018 21.56 123.88 16.5 123.88ZM46.7027 122.945C46.2994 123.018 45.6944 123.11 44.8877 123.22C44.1177 123.367 43.3294 123.44 42.5227 123.44C41.7161 123.44 40.9827 123.385 40.3227 123.275C39.6994 123.165 39.1677 122.945 38.7277 122.615C38.2877 122.285 37.9394 121.845 37.6827 121.295C37.4627 120.708 37.3527 119.957 37.3527 119.04V87.14C37.7561 87.0667 38.3427 86.975 39.1127 86.865C39.9194 86.7183 40.7261 86.645 41.5327 86.645C42.3394 86.645 43.0544 86.7 43.6777 86.81C44.3377 86.92 44.8877 87.14 45.3277 87.47C45.7677 87.8 46.0977 88.2583 46.3177 88.845C46.5744 89.395 46.7027 90.1283 46.7027 91.045V122.945ZM80.5428 109.635C80.5428 111.908 80.1944 113.943 79.4978 115.74C78.8011 117.5 77.8111 118.985 76.5278 120.195C75.2811 121.405 73.7778 122.322 72.0178 122.945C70.2578 123.568 68.2961 123.88 66.1328 123.88C63.9694 123.88 62.0078 123.55 60.2478 122.89C58.4878 122.23 56.9661 121.295 55.6828 120.085C54.4361 118.838 53.4644 117.335 52.7678 115.575C52.0711 113.815 51.7228 111.835 51.7228 109.635C51.7228 107.472 52.0711 105.51 52.7678 103.75C53.4644 101.99 54.4361 100.505 55.6828 99.295C56.9661 98.0483 58.4878 97.095 60.2478 96.435C62.0078 95.775 63.9694 95.445 66.1328 95.445C68.2961 95.445 70.2578 95.7933 72.0178 96.49C73.7778 97.15 75.2811 98.1033 76.5278 99.35C77.8111 100.56 78.8011 102.045 79.4978 103.805C80.1944 105.565 80.5428 107.508 80.5428 109.635ZM61.2928 109.635C61.2928 111.872 61.7144 113.595 62.5578 114.805C63.4378 115.978 64.6478 116.565 66.1878 116.565C67.7278 116.565 68.9011 115.96 69.7078 114.75C70.5511 113.54 70.9728 111.835 70.9728 109.635C70.9728 107.435 70.5511 105.748 69.7078 104.575C68.8644 103.365 67.6728 102.76 66.1328 102.76C64.5928 102.76 63.4011 103.365 62.5578 104.575C61.7144 105.748 61.2928 107.435 61.2928 109.635ZM98.4143 95.445C100.504 95.445 102.393 95.72 104.079 96.27C105.803 96.7833 107.251 97.4617 108.424 98.305C109.158 98.8183 109.726 99.3867 110.129 100.01C110.569 100.633 110.789 101.44 110.789 102.43V121.68C110.789 123.623 110.423 125.292 109.689 126.685C108.956 128.115 107.948 129.288 106.664 130.205C105.418 131.158 103.933 131.855 102.209 132.295C100.523 132.735 98.7077 132.955 96.7643 132.955C93.4277 132.955 90.806 132.497 88.8993 131.58C86.9927 130.7 86.0393 129.252 86.0393 127.235C86.0393 126.392 86.2043 125.64 86.5343 124.98C86.901 124.357 87.3043 123.88 87.7443 123.55C88.8077 124.137 89.9993 124.632 91.3193 125.035C92.676 125.438 94.0693 125.64 95.4993 125.64C97.4793 125.64 99.056 125.31 100.229 124.65C101.403 123.99 101.989 122.927 101.989 121.46V120.58C100.486 121.24 98.6527 121.57 96.4893 121.57C94.8393 121.57 93.2627 121.332 91.7593 120.855C90.2927 120.342 88.991 119.572 87.8543 118.545C86.7543 117.482 85.856 116.125 85.1593 114.475C84.4993 112.825 84.1693 110.863 84.1693 108.59C84.1693 106.353 84.5177 104.41 85.2143 102.76C85.9477 101.11 86.9377 99.7533 88.1843 98.69C89.4677 97.59 90.971 96.7833 92.6943 96.27C94.4543 95.72 96.361 95.445 98.4143 95.445ZM101.824 103.42C101.568 103.273 101.183 103.127 100.669 102.98C100.193 102.833 99.5877 102.76 98.8543 102.76C97.0577 102.76 95.701 103.273 94.7843 104.3C93.9043 105.29 93.4643 106.72 93.4643 108.59C93.4643 110.717 93.9043 112.257 94.7843 113.21C95.701 114.127 96.856 114.585 98.2493 114.585C99.7527 114.585 100.944 114.237 101.824 113.54V103.42ZM116.86 96.655C117.227 96.545 117.795 96.435 118.565 96.325C119.372 96.215 120.197 96.16 121.04 96.16C121.847 96.16 122.562 96.215 123.185 96.325C123.845 96.435 124.395 96.655 124.835 96.985C125.275 97.315 125.605 97.7733 125.825 98.36C126.082 98.91 126.21 99.6433 126.21 100.56V112.385C126.21 113.888 126.577 114.97 127.31 115.63C128.044 116.253 129.107 116.565 130.5 116.565C131.344 116.565 132.022 116.492 132.535 116.345C133.085 116.198 133.507 116.052 133.8 115.905V96.655C134.167 96.545 134.735 96.435 135.505 96.325C136.312 96.215 137.137 96.16 137.98 96.16C138.787 96.16 139.502 96.215 140.125 96.325C140.785 96.435 141.335 96.655 141.775 96.985C142.215 97.315 142.545 97.7733 142.765 98.36C143.022 98.91 143.15 99.6433 143.15 100.56V117.28C143.15 119.113 142.38 120.488 140.84 121.405C139.557 122.212 138.017 122.817 136.22 123.22C134.46 123.66 132.535 123.88 130.445 123.88C128.465 123.88 126.632 123.66 124.945 123.22C123.295 122.78 121.865 122.102 120.655 121.185C119.445 120.268 118.51 119.095 117.85 117.665C117.19 116.198 116.86 114.438 116.86 112.385V96.655ZM148.927 88.845C148.927 87.4517 149.385 86.2783 150.302 85.325C151.255 84.3717 152.502 83.895 154.042 83.895C155.582 83.895 156.81 84.3717 157.727 85.325C158.68 86.2783 159.157 87.4517 159.157 88.845C159.157 90.2383 158.68 91.4117 157.727 92.365C156.81 93.3183 155.582 93.795 154.042 93.795C152.502 93.795 151.255 93.3183 150.302 92.365C149.385 91.4117 148.927 90.2383 148.927 88.845ZM158.717 122.945C158.314 123.018 157.709 123.11 156.902 123.22C156.132 123.367 155.344 123.44 154.537 123.44C153.73 123.44 152.997 123.385 152.337 123.275C151.714 123.165 151.182 122.945 150.742 122.615C150.302 122.285 149.954 121.845 149.697 121.295C149.477 120.708 149.367 119.957 149.367 119.04V96.655C149.77 96.5817 150.357 96.49 151.127 96.38C151.934 96.2333 152.74 96.16 153.547 96.16C154.354 96.16 155.069 96.215 155.692 96.325C156.352 96.435 156.902 96.655 157.342 96.985C157.782 97.315 158.112 97.7733 158.332 98.36C158.589 98.91 158.717 99.6433 158.717 100.56V122.945ZM181.885 106.06C181.885 104.923 181.555 104.098 180.895 103.585C180.271 103.035 179.41 102.76 178.31 102.76C177.576 102.76 176.843 102.852 176.11 103.035C175.413 103.218 174.808 103.493 174.295 103.86V122.945C173.928 123.055 173.341 123.165 172.535 123.275C171.765 123.385 170.958 123.44 170.115 123.44C169.308 123.44 168.575 123.385 167.915 123.275C167.291 123.165 166.76 122.945 166.32 122.615C165.88 122.285 165.531 121.845 165.275 121.295C165.055 120.708 164.945 119.957 164.945 119.04V102.54C164.945 101.55 165.146 100.743 165.55 100.12C165.99 99.4967 166.576 98.9283 167.31 98.415C168.556 97.535 170.115 96.82 171.985 96.27C173.891 95.72 176 95.445 178.31 95.445C182.453 95.445 185.643 96.3617 187.88 98.195C190.116 99.9917 191.235 102.503 191.235 105.73V122.945C190.868 123.055 190.281 123.165 189.475 123.275C188.705 123.385 187.898 123.44 187.055 123.44C186.248 123.44 185.515 123.385 184.855 123.275C184.231 123.165 183.7 122.945 183.26 122.615C182.82 122.285 182.471 121.845 182.215 121.295C181.995 120.708 181.885 119.957 181.885 119.04V106.06ZM223.685 122.945C223.318 123.055 222.732 123.165 221.925 123.275C221.155 123.385 220.348 123.44 219.505 123.44C218.698 123.44 217.965 123.385 217.305 123.275C216.682 123.165 216.15 122.945 215.71 122.615C215.27 122.285 214.922 121.845 214.665 121.295C214.445 120.708 214.335 119.957 214.335 119.04V106.83C214.335 105.327 213.95 104.282 213.18 103.695C212.447 103.072 211.53 102.76 210.43 102.76C209.697 102.76 209 102.852 208.34 103.035C207.68 103.218 207.148 103.438 206.745 103.695V122.945C206.378 123.055 205.792 123.165 204.985 123.275C204.215 123.385 203.408 123.44 202.565 123.44C201.758 123.44 201.025 123.385 200.365 123.275C199.742 123.165 199.21 122.945 198.77 122.615C198.33 122.285 197.982 121.845 197.725 121.295C197.505 120.708 197.395 119.957 197.395 119.04V87.14C197.798 87.0667 198.385 86.975 199.155 86.865C199.962 86.7183 200.768 86.645 201.575 86.645C202.382 86.645 203.097 86.7 203.72 86.81C204.38 86.92 204.93 87.14 205.37 87.47C205.81 87.8 206.14 88.2583 206.36 88.845C206.617 89.395 206.745 90.1283 206.745 91.045V96.435C207.222 96.2517 207.937 96.05 208.89 95.83C209.88 95.5733 210.962 95.445 212.135 95.445C215.765 95.445 218.588 96.3617 220.605 98.195C222.658 99.9917 223.685 102.687 223.685 106.28V122.945ZM257.398 109.635C257.398 111.908 257.05 113.943 256.353 115.74C255.656 117.5 254.666 118.985 253.383 120.195C252.136 121.405 250.633 122.322 248.873 122.945C247.113 123.568 245.151 123.88 242.988 123.88C240.825 123.88 238.863 123.55 237.103 122.89C235.343 122.23 233.821 121.295 232.538 120.085C231.291 118.838 230.32 117.335 229.623 115.575C228.926 113.815 228.578 111.835 228.578 109.635C228.578 107.472 228.926 105.51 229.623 103.75C230.32 101.99 231.291 100.505 232.538 99.295C233.821 98.0483 235.343 97.095 237.103 96.435C238.863 95.775 240.825 95.445 242.988 95.445C245.151 95.445 247.113 95.7933 248.873 96.49C250.633 97.15 252.136 98.1033 253.383 99.35C254.666 100.56 255.656 102.045 256.353 103.805C257.05 105.565 257.398 107.508 257.398 109.635ZM238.148 109.635C238.148 111.872 238.57 113.595 239.413 114.805C240.293 115.978 241.503 116.565 243.043 116.565C244.583 116.565 245.756 115.96 246.563 114.75C247.406 113.54 247.828 111.835 247.828 109.635C247.828 107.435 247.406 105.748 246.563 104.575C245.72 103.365 244.528 102.76 242.988 102.76C241.448 102.76 240.256 103.365 239.413 104.575C238.57 105.748 238.148 107.435 238.148 109.635Z" fill="#FCFDFE"/>
</svg>
